<svg style="position: absolute; width: 0; height: 0; overflow: hidden;" version="1.1" xmlns="http://www.w3.org/2000/svg" xmlns:xlink="http://www.w3.org/1999/xlink">
<defs>
<symbol id="icon-images" viewBox="0 0 36 32">
<title>images</title>
<path class="path1" d="M34 4h-2v-2c0-1.1-0.9-2-2-2h-28c-1.1 0-2 0.9-2 2v24c0 1.1 0.9 2 2 2h2v2c0 1.1 0.9 2 2 2h28c1.1 0 2-0.9 2-2v-24c0-1.1-0.9-2-2-2zM4 6v20h-1.996c-0.001-0.001-0.003-0.002-0.004-0.004v-23.993c0.001-0.001 0.002-0.003 0.004-0.004h27.993c0.001 0.001 0.003 0.002 0.004 0.004v1.996h-24c-1.1 0-2 0.9-2 2v0zM34 29.996c-0.001 0.001-0.002 0.003-0.004 0.004h-27.993c-0.001-0.001-0.003-0.002-0.004-0.004v-23.993c0.001-0.001 0.002-0.003 0.004-0.004h27.993c0.001 0.001 0.003 0.002 0.004 0.004v23.993z"></path>
<path class="path2" d="M30 11c0 1.657-1.343 3-3 3s-3-1.343-3-3 1.343-3 3-3 3 1.343 3 3z"></path>
<path class="path3" d="M32 28h-24v-4l7-12 8 10h2l7-6z"></path>
</symbol>
<symbol id="icon-video-camera" viewBox="0 0 32 32">
<title>video-camera</title>
<path class="path1" d="M12 9c0-2.761 2.239-5 5-5s5 2.239 5 5c0 2.761-2.239 5-5 5s-5-2.239-5-5zM0 9c0-2.761 2.239-5 5-5s5 2.239 5 5c0 2.761-2.239 5-5 5s-5-2.239-5-5zM24 19v-3c0-1.1-0.9-2-2-2h-20c-1.1 0-2 0.9-2 2v10c0 1.1 0.9 2 2 2h20c1.1 0 2-0.9 2-2v-3l8 5v-14l-8 5zM20 24h-16v-6h16v6z"></path>
</symbol>
<symbol id="icon-pacman" viewBox="0 0 32 32">
<title>pacman</title>
<path class="path1" d="M30.148 5.588c-2.934-3.42-7.288-5.588-12.148-5.588-8.837 0-16 7.163-16 16s7.163 16 16 16c4.86 0 9.213-2.167 12.148-5.588l-10.148-10.412 10.148-10.412zM22 3.769c1.232 0 2.231 0.999 2.231 2.231s-0.999 2.231-2.231 2.231-2.231-0.999-2.231-2.231c0-1.232 0.999-2.231 2.231-2.231z"></path>
</symbol>
<symbol id="icon-profile" viewBox="0 0 32 32">
<title>profile</title>
<path class="path1" d="M27 0h-24c-1.65 0-3 1.35-3 3v26c0 1.65 1.35 3 3 3h24c1.65 0 3-1.35 3-3v-26c0-1.65-1.35-3-3-3zM26 28h-22v-24h22v24zM8 18h14v2h-14zM8 22h14v2h-14zM10 9c0-1.657 1.343-3 3-3s3 1.343 3 3c0 1.657-1.343 3-3 3s-3-1.343-3-3zM15 12h-4c-1.65 0-3 0.9-3 2v2h10v-2c0-1.1-1.35-2-3-2z"></path>
</symbol>
<symbol id="icon-stack" viewBox="0 0 32 32">
<title>stack</title>
<path class="path1" d="M32 10l-16-8-16 8 16 8 16-8zM16 4.655l10.689 5.345-10.689 5.345-10.689-5.345 10.689-5.345zM28.795 14.398l3.205 1.602-16 8-16-8 3.205-1.602 12.795 6.398zM28.795 20.398l3.205 1.602-16 8-16-8 3.205-1.602 12.795 6.398z"></path>
</symbol>
<symbol id="icon-folder-open" viewBox="0 0 32 32">
<title>folder-open</title>
<path class="path1" d="M26 30l6-16h-26l-6 16zM4 12l-4 18v-26h9l4 4h13v4z"></path>
</symbol>
<symbol id="icon-qrcode" viewBox="0 0 32 32">
<title>qrcode</title>
<path class="path1" d="M10 2h-8v8h8v-8zM12 0v0 12h-12v-12h12zM4 4h4v4h-4zM30 2h-8v8h8v-8zM32 0v0 12h-12v-12h12zM24 4h4v4h-4zM10 22h-8v8h8v-8zM12 20v0 12h-12v-12h12zM4 24h4v4h-4zM14 0h2v2h-2zM16 2h2v2h-2zM14 4h2v2h-2zM16 6h2v2h-2zM14 8h2v2h-2zM16 10h2v2h-2zM14 12h2v2h-2zM14 16h2v2h-2zM16 18h2v2h-2zM14 20h2v2h-2zM16 22h2v2h-2zM14 24h2v2h-2zM16 26h2v2h-2zM14 28h2v2h-2zM16 30h2v2h-2zM30 16h2v2h-2zM2 16h2v2h-2zM4 14h2v2h-2zM0 14h2v2h-2zM8 14h2v2h-2zM10 16h2v2h-2zM12 14h2v2h-2zM18 16h2v2h-2zM20 14h2v2h-2zM22 16h2v2h-2zM24 14h2v2h-2zM26 16h2v2h-2zM28 14h2v2h-2zM30 20h2v2h-2zM18 20h2v2h-2zM20 18h2v2h-2zM22 20h2v2h-2zM26 20h2v2h-2zM28 18h2v2h-2zM30 24h2v2h-2zM18 24h2v2h-2zM20 22h2v2h-2zM24 22h2v2h-2zM26 24h2v2h-2zM28 22h2v2h-2zM30 28h2v2h-2zM20 26h2v2h-2zM22 28h2v2h-2zM24 26h2v2h-2zM26 28h2v2h-2zM20 30h2v2h-2zM24 30h2v2h-2zM28 30h2v2h-2z"></path>
</symbol>
<symbol id="icon-display" viewBox="0 0 32 32">
<title>display</title>
<path class="path1" d="M0 2v20h32v-20h-32zM30 20h-28v-16h28v16zM21 24h-10l-1 4-2 2h16l-2-2z"></path>
</symbol>
<symbol id="icon-spinner6" viewBox="0 0 32 32">
<title>spinner6</title>
<path class="path1" d="M12 4c0-2.209 1.791-4 4-4s4 1.791 4 4c0 2.209-1.791 4-4 4s-4-1.791-4-4zM24.719 16c0 0 0 0 0 0 0-1.812 1.469-3.281 3.281-3.281s3.281 1.469 3.281 3.281c0 0 0 0 0 0 0 1.812-1.469 3.281-3.281 3.281s-3.281-1.469-3.281-3.281zM21.513 24.485c0-1.641 1.331-2.972 2.972-2.972s2.972 1.331 2.972 2.972c0 1.641-1.331 2.972-2.972 2.972s-2.972-1.331-2.972-2.972zM13.308 28c0-1.487 1.205-2.692 2.692-2.692s2.692 1.205 2.692 2.692c0 1.487-1.205 2.692-2.692 2.692s-2.692-1.205-2.692-2.692zM5.077 24.485c0-1.346 1.092-2.438 2.438-2.438s2.438 1.092 2.438 2.438c0 1.346-1.092 2.438-2.438 2.438s-2.438-1.092-2.438-2.438zM1.792 16c0-1.22 0.989-2.208 2.208-2.208s2.208 0.989 2.208 2.208c0 1.22-0.989 2.208-2.208 2.208s-2.208-0.989-2.208-2.208zM5.515 7.515c0 0 0 0 0 0 0-1.105 0.895-2 2-2s2 0.895 2 2c0 0 0 0 0 0 0 1.105-0.895 2-2 2s-2-0.895-2-2zM28.108 7.515c0 2.001-1.622 3.623-3.623 3.623s-3.623-1.622-3.623-3.623c0-2.001 1.622-3.623 3.623-3.623s3.623 1.622 3.623 3.623z"></path>
</symbol>
<symbol id="icon-stats-bars" viewBox="0 0 32 32">
<title>stats-bars</title>
<path class="path1" d="M0 26h32v4h-32zM4 18h4v6h-4zM10 10h4v14h-4zM16 16h4v8h-4zM22 4h4v20h-4z"></path>
</symbol>
<symbol id="icon-google3" viewBox="0 0 32 32">
<title>google3</title>
<path class="path1" d="M16 0c-8.838 0-16 7.162-16 16s7.162 16 16 16 16-7.163 16-16-7.163-16-16-16zM16.238 28c-6.631 0-12-5.369-12-12s5.369-12 12-12c3.238 0 5.95 1.181 8.037 3.138l-3.256 3.138c-0.894-0.856-2.45-1.85-4.781-1.85-4.1 0-7.438 3.394-7.438 7.575s3.344 7.575 7.438 7.575c4.75 0 6.531-3.413 6.806-5.175h-6.806v-4.113h11.331c0.1 0.6 0.188 1.2 0.188 1.988 0.006 6.856-4.588 11.725-11.519 11.725z"></path>
</symbol>
<symbol id="icon-sina-weibo" viewBox="0 0 32 32">
<title>sina-weibo</title>
<path class="path1" d="M13.444 28.063c-5.3 0.525-9.875-1.875-10.219-5.35-0.344-3.481 3.675-6.719 8.969-7.244 5.3-0.525 9.875 1.875 10.213 5.35 0.35 3.481-3.669 6.725-8.963 7.244zM24.038 16.519c-0.45-0.137-0.762-0.225-0.525-0.819 0.512-1.287 0.563-2.394 0.006-3.188-1.038-1.481-3.881-1.406-7.137-0.037 0 0-1.025 0.444-0.762-0.363 0.5-1.613 0.425-2.956-0.356-3.738-1.769-1.769-6.469 0.069-10.5 4.1-3.013 3.006-4.763 6.213-4.763 8.981 0 5.288 6.787 8.506 13.425 8.506 8.7 0 14.494-5.056 14.494-9.069 0-2.431-2.044-3.806-3.881-4.375z"></path>
<path class="path2" d="M29.819 6.831c-2.1-2.331-5.2-3.219-8.063-2.612v0c-0.663 0.144-1.081 0.794-0.938 1.45 0.144 0.662 0.788 1.081 1.45 0.938 2.038-0.431 4.238 0.2 5.731 1.856s1.9 3.912 1.256 5.888v0c-0.206 0.644 0.144 1.331 0.788 1.544 0.644 0.206 1.331-0.144 1.544-0.787v-0.006c0.9-2.762 0.331-5.938-1.769-8.269z"></path>
<path class="path3" d="M26.587 9.75c-1.025-1.137-2.538-1.569-3.925-1.269-0.569 0.119-0.931 0.688-0.813 1.256 0.125 0.569 0.688 0.931 1.25 0.806v0c0.681-0.144 1.419 0.069 1.919 0.619 0.5 0.556 0.637 1.313 0.419 1.975v0c-0.175 0.55 0.125 1.15 0.681 1.331 0.556 0.175 1.15-0.125 1.331-0.681 0.438-1.356 0.163-2.906-0.863-4.037z"></path>
<path class="path4" d="M13.738 21.769c-0.188 0.319-0.594 0.469-0.912 0.337-0.319-0.125-0.412-0.488-0.231-0.794 0.188-0.306 0.581-0.456 0.894-0.337 0.313 0.113 0.425 0.469 0.25 0.794zM12.044 23.931c-0.512 0.819-1.613 1.175-2.438 0.8-0.813-0.369-1.056-1.319-0.544-2.119 0.506-0.794 1.569-1.15 2.387-0.806 0.831 0.356 1.1 1.3 0.594 2.125zM13.969 18.144c-2.519-0.656-5.369 0.6-6.463 2.819-1.119 2.262-0.037 4.781 2.506 5.606 2.637 0.85 5.75-0.456 6.831-2.894 1.069-2.394-0.262-4.85-2.875-5.531z"></path>
</symbol>
<symbol id="icon-github" viewBox="0 0 32 32">
<title>github</title>
<path class="path1" d="M16 0.395c-8.836 0-16 7.163-16 16 0 7.069 4.585 13.067 10.942 15.182 0.8 0.148 1.094-0.347 1.094-0.77 0-0.381-0.015-1.642-0.022-2.979-4.452 0.968-5.391-1.888-5.391-1.888-0.728-1.849-1.776-2.341-1.776-2.341-1.452-0.993 0.11-0.973 0.11-0.973 1.606 0.113 2.452 1.649 2.452 1.649 1.427 2.446 3.743 1.739 4.656 1.33 0.143-1.034 0.558-1.74 1.016-2.14-3.554-0.404-7.29-1.777-7.29-7.907 0-1.747 0.625-3.174 1.649-4.295-0.166-0.403-0.714-2.030 0.155-4.234 0 0 1.344-0.43 4.401 1.64 1.276-0.355 2.645-0.532 4.005-0.539 1.359 0.006 2.729 0.184 4.008 0.539 3.054-2.070 4.395-1.64 4.395-1.64 0.871 2.204 0.323 3.831 0.157 4.234 1.026 1.12 1.647 2.548 1.647 4.295 0 6.145-3.743 7.498-7.306 7.895 0.574 0.497 1.085 1.47 1.085 2.963 0 2.141-0.019 3.864-0.019 4.391 0 0.426 0.288 0.925 1.099 0.768 6.354-2.118 10.933-8.113 10.933-15.18 0-8.837-7.164-16-16-16z"></path>
</symbol>
<symbol id="icon-chrome" viewBox="0 0 32 32">
<title>chrome</title>
<path class="path1" d="M8.071 13.954l-4.579-7.931c2.932-3.671 7.445-6.023 12.508-6.023 5.857 0 10.978 3.148 13.767 7.844h-13.055c-0.235-0.020-0.472-0.031-0.711-0.031-3.809 0-7.018 2.614-7.929 6.142zM21.728 10.156h9.171c0.711 1.81 1.101 3.781 1.101 5.844 0 8.776-7.066 15.9-15.818 15.998l6.544-11.334c0.921-1.324 1.462-2.932 1.462-4.664 0-2.287-0.943-4.357-2.459-5.844zM10.188 16c0-3.205 2.607-5.813 5.813-5.813s5.813 2.607 5.813 5.813c0 3.205-2.608 5.813-5.813 5.813s-5.813-2.608-5.813-5.813zM18.193 23.889l-4.581 7.934c-7.704-1.153-13.613-7.797-13.613-15.822 0-2.851 0.746-5.526 2.053-7.845l6.532 11.314c1.308 2.785 4.14 4.718 7.415 4.718 0.759 0 1.495-0.104 2.193-0.299z"></path>
</symbol>
</defs>
</svg>
